<?xml version="1.0" encoding="UTF-8" standalone="yes"?>
<svg version="1.1" width="64" height="64" color-interpolation="linearRGB"
     xmlns:svg="http://www.w3.org/2000/svg" xmlns="http://www.w3.org/2000/svg">
 <g>
  <path style="fill:#010101; fill-opacity:0.447"
        d="M22 43C22 46 22 49 22 52C25.33 52 28.66 52 32 52C35.66 55.33 39.33 58.66 43 62C48.33 62 53.66 62 59 62C60.66 60 62.33 58 64 56C62 54.66 60 53.33 58 52C55.33 52 52.66 52 50 52C44 49 38 46 32 43C28.66 43 25.33 43 22 43V43V43z"
  />
  <path style="fill:none; stroke:#040e0b; stroke-width:2"
        d="M22 51C23.66 49.66 25.33 48.33 27 47C27 32.33 27 17.66 27 3C24.33 2.33 21.66 1.66 19 1C17 2 15 3 13 4C13 18 13 32 13 46C16 47.66 19 49.33 22 51V51V51z"
  />
  <path style="fill:none; stroke:#040e0b; stroke-width:2"
        d="M43 61C45 59 47 57 49 55C49 39.33 49 23.66 49 8C46 7.33 43 6.66 40 6C37.66 7.33 35.33 8.66 33 10C33 25.33 33 40.66 33 56C36.33 57.66 39.66 59.33 43 61V61V61z"
  />
  <linearGradient id="gradient0" gradientUnits="userSpaceOnUse" x1="79.52" y1="-125.87" x2="176.71" y2="-25.68">
   <stop offset="0" stop-color="#8d8d8d"/>
   <stop offset="1" stop-color="#ffffff"/>
  </linearGradient>
  <path style="fill:url(#gradient0)"
        d="M26 4C24.66 4.66 23.33 5.33 22 6C22 20.66 22 35.33 22 50C23.33 49 24.66 48 26 47C26 32.66 26 18.33 26 4V4V4z"
  />
  <linearGradient id="gradient1" gradientUnits="userSpaceOnUse" x1="79.52" y1="-125.87" x2="176.71" y2="-25.68">
   <stop offset="0" stop-color="#8d8d8d"/>
   <stop offset="1" stop-color="#ffffff"/>
  </linearGradient>
  <path style="fill:url(#gradient1)"
        d="M48 9C46.33 9.66 44.66 10.33 43 11C43 27.33 43 43.66 43 60C44.66 58.33 46.33 56.66 48 55C48 39.66 48 24.33 48 9V9V9z"
  />
  <linearGradient id="gradient2" gradientUnits="userSpaceOnUse" x1="-75.08" y1="57.63" x2="-66.88" y2="-9.19">
   <stop offset="0" stop-color="#c0c0c0"/>
   <stop offset="1" stop-color="#ffffff"/>
  </linearGradient>
  <path style="fill:url(#gradient2)"
        d="M22 6C19.33 5.33 16.66 4.66 14 4C14 18 14 32 14 46C16.66 47.33 19.33 48.66 22 50C22 35.33 22 20.66 22 6V6V6z"
  />
  <linearGradient id="gradient3" gradientUnits="userSpaceOnUse" x1="-75.08" y1="57.63" x2="-66.88" y2="-9.19">
   <stop offset="0" stop-color="#c0c0c0"/>
   <stop offset="1" stop-color="#ffffff"/>
  </linearGradient>
  <path style="fill:url(#gradient3)"
        d="M43 12C40 11.33 37 10.66 34 10C34 25.33 34 40.66 34 56C37 57.33 40 58.66 43 60C43 44 43 28 43 12V12V12z"
  />
  <linearGradient id="gradient4" gradientUnits="userSpaceOnUse" x1="10.71" y1="-51.22" x2="56.88" y2="-1.04">
   <stop offset="0" stop-color="#6a6a6a"/>
   <stop offset="1" stop-color="#ffffff"/>
  </linearGradient>
  <path style="fill:url(#gradient4)"
        d="M19 2C17.33 2.66 15.66 3.33 14 4C16.66 4.66 19.33 5.33 22 6C23.33 5.33 24.66 4.66 26 4C23.66 3.33 21.33 2.66 19 2V2V2z"
  />
  <linearGradient id="gradient5" gradientUnits="userSpaceOnUse" x1="10.71" y1="-51.22" x2="56.88" y2="-1.04">
   <stop offset="0" stop-color="#6a6a6a"/>
   <stop offset="1" stop-color="#ffffff"/>
  </linearGradient>
  <path style="fill:url(#gradient5)"
        d="M40 7C38 8 36 9 34 10C37 10.66 40 11.33 43 12C44.66 11 46.33 10 48 9C45.33 8.33 42.66 7.66 40 7V7V7z"
  />
  <path style="fill:none; stroke:#040e0b; stroke-width:2.3621"
        d="M12.96 30.08C17.45 36.99 23.03 39.99 29.11 40.34C28.31 39.39 28.05 38.4 27.83 37.6C33.52 42.91 37.84 38.95 40.21 37.91C39.64 37.17 38.69 37.42 37.68 35.38C39.41 36.04 40.59 36.23 42.24 36.6C43.5 35.87 45.22 35.46 46.44 34.53C47.95 33.38 49.89 31.79 51.49 30.45C50.8 29.78 50.74 29.3 50.58 28.62C51.27 28.97 51.97 29.23 52.7 29.39C54.11 27.74 55.91 26.92 57.07 26.66C53.08 24.13 47.49 23.04 43.28 22.95C41.68 23.8 41.39 25.31 40.39 27.7C39.8 26.4 39.74 24.9 40.66 23.09C37.63 23.34 34.61 23.92 31.68 24.56C30.53 24.81 27.59 26.05 25.99 26.29C25.05 27.19 24.24 28.07 23.55 28.93C23.71 28.03 23.77 27.12 24.05 26.2C19.02 25.85 16.06 26.54 12.42 28.57C5.93 27.08 1.2 23.06 1.2 23.06C1.03 23.83 0.86 24.61 0.68 25.38C0.68 25.38 6.3 28.91 12.97 30.08C12.97 30.08 12.97 30.08 12.96 30.08V30.08V30.08z"
  />
  <radialGradient id="gradient6" gradientUnits="userSpaceOnUse" cx="0" cy="0" r="64" gradientTransform="matrix(0.0692,0.3936,-1.1598,0.2042,27.402,24.8582)">
   <stop offset="0" stop-color="#2a8423"/>
   <stop offset="1" stop-color="#a9ff00"/>
  </radialGradient>
  <path style="fill:url(#gradient6)"
        d="M13.19 30.52C17.66 37.12 23.15 39.92 29.1 40.17C28.31 39.27 28.04 38.32 27.82 37.55C33.44 42.59 37.63 38.72 39.92 37.68C39.36 36.98 38.44 37.23 37.43 35.28C39.12 35.89 40.28 36.05 41.9 36.39C43.12 35.67 44.8 35.25 45.98 34.34C47.44 33.21 49.33 31.65 50.87 30.34C50.19 29.71 50.12 29.25 49.96 28.59C50.64 28.92 51.32 29.16 52.04 29.31C53.4 27.7 55.15 26.88 56.28 26.62C52.35 24.24 46.87 23.26 42.75 23.24C41.2 24.07 40.93 25.54 39.98 27.86C39.39 26.6 39.31 25.17 40.19 23.41C37.23 23.69 34.29 24.29 31.43 24.95C30.31 25.21 27.45 26.44 25.89 26.69C24.98 27.58 24.2 28.43 23.53 29.27C23.68 28.4 23.73 27.52 23.99 26.64C19.06 26.37 16.18 27.07 12.65 29.08C6.28 27.74 1.61 23.93 1.61 23.93C1.45 24.68 1.29 25.43 1.13 26.17C1.13 26.17 6.66 29.5 13.2 30.52C13.2 30.52 13.2 30.52 13.19 30.52V30.52V30.52z"
  />
 </g>
</svg>
